# xmcd
#
# Track frame offsets:
#	150
#	18582
#	34680
#	47830
#	65416
#	77062
#	91270
#	107578
#	121617
#	139538
#	153040
#	163498
#	178791
#	192859
#	208072
#	223013
#	235181
#	255392
#	273090
#	288953
#	309031
#	326714
#	343479
#
# Disc length: 4745 seconds
#
# Revision: 0
# Processed by: cddbd v1.4PL0 Copyright (c) Steve Scherf et al.
# Submitted via: audiograbber 1.81.02
#
DISCID=41128717
DTITLE=Various Artist - Country Hits 20
DYEAR=1900
DGENRE=
TTITLE0=Vince Gill  - I Can't Tell You Why
TTITLE1=Brooks and Dunn  - A Man This Lonely
TTITLE2=Brooks and Dunn - My Next Broken Heart
TTITLE3=Clint Black - Nothin' But The Tail Lights
TTITLE4=Dwight Yoakam - It Only Hurts Me When I Cry
TTITLE5=Garth Brooks - Wild Horses
TTITLE6=George Strait - Famous Last Words Of A Fool
TTITLE7=Lonestar - Heartbroke Every Day
TTITLE8=LoneStar - When Cowboys Didn't Dance
TTITLE9=Mark Chestnut - Till A Better Memory Comes Along
TTITLE10=Mike Henderson  - If The Jukebox Took Tear Drops
TTITLE11=Suzy Bogguss - Diamonds and Tears
TTITLE12=Trace Adkins - Lonely Won't Leave Me Alone
TTITLE13=Tracy Byrd  - I Wanna Feel That Way Again
TTITLE14=Alabama - Love In The First Degree
TTITLE15=Clint Black  - The Gulf Of Mexico
TTITLE16=Dwight Yokoam - A thousand Miles From NoWhere
TTITLE17=Pam Tillis - Betty's Got A Bass Boat
TTITLE18=Dwight Yoakam  - These Arms
TTITLE19=Mary Chapin Carpenter  - I Feel Lucky
TTITLE20=Alan Jackson - There Goes
TTITLE21=Pam Tillis  - Blue Rose Is
TTITLE22=Holly Dunn - The Blue Rose Of Texas
EXTD=
EXTT0=
EXTT1=
EXTT2=
EXTT3=
EXTT4=
EXTT5=
EXTT6=
EXTT7=
EXTT8=
EXTT9=
EXTT10=
EXTT11=
EXTT12=
EXTT13=
EXTT14=
EXTT15=
EXTT16=
EXTT17=
EXTT18=
EXTT19=
EXTT20=
EXTT21=
EXTT22=
PLAYORDER=
